<svg width="10" height="10" viewBox="0 0 10 10" fill="none" xmlns="http://www.w3.org/2000/svg">
<path d="M9.16543 2.62025L7.9593 3.82587L6.1741 2.04067L7.38023 0.835054C7.42874 0.78654 7.485 0.779315 7.51442 0.779315C7.54384 0.779315 7.60061 0.78654 7.6486 0.835054L9.16491 2.35136C9.21343 2.39988 9.22065 2.45613 9.22065 2.48555C9.22065 2.51497 9.21343 2.57174 9.16491 2.61974L9.16543 2.62025ZM2.91027 8.87541L0.84431 9.15566L1.12455 7.0897L5.62342 2.59135L7.40862 4.37655L2.91027 8.8749V8.87541ZM9.71611 1.80017L8.1998 0.283856C8.01658 0.10064 7.7735 0 7.51442 0C7.25533 0 7.01225 0.10064 6.82903 0.283856L0.480974 6.63192C0.42059 6.6923 0.381882 6.77075 0.370528 6.85487L0.00357912 9.55822C-0.0129362 9.67898 0.028352 9.80027 0.114025 9.88594C0.200214 9.97213 0.321498 10.0129 0.44175 9.99639L3.14509 9.62944C3.22973 9.61808 3.30767 9.57938 3.36805 9.51899L9.71611 3.17093C9.89933 2.98772 9.99997 2.74463 9.99997 2.48555C9.99997 2.22647 9.89933 1.98338 9.71611 1.80017Z" fill="#8396AA"/>
</svg>
