<svg xmlns="http://www.w3.org/2000/svg" version="1.1" xmlns:xlink="http://www.w3.org/1999/xlink" viewBox="0 0 800 800" style="overflow: hidden; display: block;" width="800" height="800"><defs><linearGradient id="dddraw-gradient" x1="711" y1="-400" x2="711" y2="800" spreadMethod="pad" gradientUnits="userSpaceOnUse"><stop offset="0%" stop-color="hsl(1.4, 100%, 67%)" stop-opacity="1"></stop><stop offset="100%" stop-color="hsl(167, 52%, 78%)" stop-opacity="1"></stop></linearGradient></defs><g id="two-0" transform="matrix(1 0 0 1 0 0)" opacity="1"></g><path d="M 162.50144424695213 419.61502199909285 Q 162.50144424695213 419.61502199909285 150.06029571010575 420.23361428604375 137.61914717325936 420.85220657299465 122.84078938723536 449.1002648247777 108.06243160121137 477.3483230765607 139.0691731860925 486.4513774978899 170.07591477097367 495.55443191921904 197.62737347170992 504.0499162755018 225.17883217244614 512.5454006317846 250.4992689126421 529.9343945081221 275.8197056528381 547.3233883844597 298.52691686673677 570.4017303347608 321.2341280806354 593.480072285062 330.26481529207626 620.8014414328251 339.29550250351707 648.1228105805882 323.332468705666 680.3469227787376 307.3694349078148 712.5710349768871 281.38993416283347 727.6326685390136 255.41043341785215 742.6943021011402 225.24997020744365 752.3118802569938 195.08950699703516 761.9294584128476 163.62438629618458 766.8880021353282 132.15926559533398 771.8465458578088 99.93730370300034 765.3393171359492 67.7153418106667 758.8320884140895 39.97542169222426 741.4263552431516 12.235501573781825 724.0206220722138 0.6373445259483583 715.0207891163943 -10.960812521885108 706.0209561605748 -16.928741677811615 702.3883866283672 -22.89667083373812 698.7558170961597 -27.392257489564198 693.4077856418357 -31.887844145390275 688.0597541875118 -34.44039919153131 681.5562011160823 -36.99295423767236 675.0526480446528 -37.3352244869883 668.0744970794676 -37.67749473630425 661.0963461142826 -35.77364440334114 654.3742115034497 -33.86979407037803 647.652076892617 -29.91915678756478 641.8897679043619 -25.968519504751534 636.1274589161067 -20.38472803846566 631.9282908226014 -14.800936572179788 627.729122729096 -8.168615362919219 625.5327495382032 -1.53629415365865 623.3363763473104 5.450151017204271 623.3727589119028 12.436596188067192 623.4091414764953 19.045682666900706 625.6744705324561 25.65476914573422 627.9397995884169 31.194523833575055 632.1968945855981 36.73427852141589 636.4539895827794 40.624687640093896 642.2571315512123 44.515096758771904 648.0602735196452 46.34883344659323 654.8018719633542 48.182570134414554 661.5434704070631 47.76764167610483 668.5176781893824 47.35271321779511 675.4918859717019 44.73256273246983 681.968501696811 42.11241224714455 688.44511742192 37.56137018226986 693.7460377137393 33.010328117395176 699.0469580055585 27.004889778521846 702.6171751102274 20.999451439648517 706.1873922148964 14.168387806138387 707.6531034591103 7.337324172628257 709.1188147033242 0.3958494101354688 708.3265597329039 -6.54562535235732 707.5343047624835 -12.87073700382836 704.5670328819668 -19.1958486552994 701.5997610014501 -24.242356336172392 696.7681463600109 -29.288864017045384 691.9365317185716 -32.528397040984245 685.746445644591 -35.76793006492311 679.5563595706103 -36.861308469167795 672.655905710058 -37.954686873412484 665.7554518495057 -36.78743365041469 658.8671095431243 -35.6201804274169 651.9787672367431 -32.31450729774943 645.8237477423569 -29.008834168081954 639.6687282479706 -23.910845981033983 634.891463731409 -18.812857793986012 630.1141992148474 -12.456315258479583 627.2148705320697 -6.099772722973153 624.315541849292 0.8497924795599134 623.5977094787335 7.79935768209298 622.8798771081749 14.614324240440428 624.4186982885224 21.429290798787875 625.9575194688699 21.423286040991016 625.9550902111027 21.417281283194157 625.9526609533355 46.12635186773226 643.4349482665 70.83542245227036 660.9172355796644 101.65444075631437 673.5135573558025 132.47345906035838 686.1098791319405 162.23699510482808 678.7554193765416 192.00053114929779 671.4009596211428 220.86116217475058 659.0205837702464 249.72179320020336 646.64020791935 232.08193060618203 623.8383509549751 214.44206801216072 601.0364939906002 184.99525424562765 588.5756285118102 155.54844047909458 576.1147630330203 127.97371921601413 566.3698272450963 100.3989979529337 556.6248914571723 73.64837348478605 534.5146160123597 46.897749016638414 512.4043405675471 44.11825313276398 479.0134107270096 41.33875724888956 445.62248088647203 61.471656459569104 417.23725865574073 81.60455567024864 388.85203642500943 108.27965055281592 373.5198230070621 134.9547454353832 358.1876095891147 147.43087422702803 357.7679832481359 159.90700301867287 357.34835690715715 163.6513149932411 357.6454971439231 167.3956269678093 357.94263738068895 170.96001661601161 359.1272431881155 174.5244062642139 360.31184899554194 177.70171109222463 362.31507102844296 180.87901592023533 364.318293061344 183.4845708221655 367.0237039610463 186.09012572409563 369.7291148607486 187.97249572662352 372.97947601864837 189.8548657291514 376.22983717654813 190.90464739928737 379.8362374494306 191.95442906942333 383.44263772231307 192.11060904717527 387.1954729568723 192.26678902492722 390.94830819143164 191.52029012265012 394.62946342750894 190.77379122037303 398.31061866358624 189.16799998934135 401.7061449859024 187.56220875830965 405.1016713082186 185.1904538603187 408.0142205673825 182.81869896232774 410.9267698265464 179.8188269034852 413.1870645227699 176.81895484464263 415.44735921899337 173.3653183299568 416.9240309183324 169.91168181527098 418.40070261767147 166.20500636124382 419.0079270915794 162.49833090721665 419.6151515654874 162.4998875770844 419.6150867822901 Z" fill="hsl(105, 69%, 30%)"></path><path d="M 269.171455876622 314.02542434309123 Q 269.171455876622 314.02542434309123 270.88076616083106 325.443854304207 272.59007644504015 336.8622842653227 272.5871335713032 369.8455473858078 272.58419069756616 402.8288105062928 236.3511716351171 420.45554707725375 200.1181525726681 438.0822836482146 211.29521125828373 402.0938478808936 222.47226994389936 366.1054121135726 260.5343980094814 357.4905696659831 298.5965260750634 348.87572721839365 328.0247591195083 371.00003437321567 357.4529921639532 393.1243415280377 366.6348784672491 420.6369646462049 375.81676477054503 448.14958776437214 375.8637701805361 450.77188933391085 375.91077559052724 453.3941909034496 374.758394270644 460.4231782603306 373.60601295076066 467.45216561721156 370.2695236195017 473.74521614235465 366.93303428824265 480.03826666749774 361.76176825933845 484.9364963097164 356.59050223043425 489.83472595193507 350.12589242219275 492.825288774682 343.66128261395124 495.815851597429 336.5801753797866 496.58563488373073 329.49906814562195 497.35541817003246 322.5428572821819 495.82382540661007 315.5866464187419 494.2922326431877 309.48364903969 490.6196219966727 303.3806516606382 486.94701135015777 298.7698532025961 481.51790612471547 294.159054744554 476.08880089927317 291.52320702321117 469.4716298451519 288.8873593018684 462.8544587910306 288.50243626944575 455.74204146436034 288.1175132370231 448.6296241376901 290.0238164366251 441.7666325100691 291.93011963622706 434.9036408824481 295.9280586196401 429.0086319889421 299.9259976030532 423.11362309543614 305.5969871033606 418.8038059233264 311.26797660366805 414.49398875121676 318.01826252319177 412.2206022961045 324.76854844271554 409.94721584099227 331.8913740637791 409.94828426484344 339.01419968484265 409.94935268869466 345.76380328467724 412.22476412725 352.5134068845118 414.50017556580536 358.18310318449244 418.81169384079783 363.8527994844731 423.12321211579035 367.8489697853374 429.01942012569793 371.84514008620164 434.9156281356056 373.7493843025626 441.77919134534324 375.6536285189235 448.6427545550809 375.2665717786564 455.75505608478437 374.87951503838923 462.86735761448784 372.24168228437316 469.4837376165319 369.603849530357 476.10011761857595 364.9914225482577 481.5278393601918 360.37899556615827 486.95556110180775 354.2748966785639 490.626340683869 348.1707977909695 494.2971202659302 341.2141277627369 495.8266260972032 334.2574577345042 497.35613192847615 327.1765817539718 496.5842243446763 320.09570577343936 495.81231676087646 313.63199342493874 492.81981468979143 307.16828107643806 489.82731261870646 301.9984847491114 484.9275318171227 296.8286884217848 480.02775101553897 293.49408715579705 473.7336998267988 290.1594858898093 467.43964863805866 289.00921331795854 460.41031588309136 287.8589407461078 453.380983128124 287.85893975552466 453.38758701578683 287.8589387649415 453.3941909034496 273.0326694901602 437.55506131576783 258.2064002153789 421.71593172808605 282.36446000045305 401.959124402273 306.52251978552727 382.20231707645996 292.04189743738436 409.8664175565434 277.5612750892414 437.53051803662686 256.748213308988 457.34696871060106 235.93515152873456 477.16341938457526 219.8160407183433 442.7004682982471 203.69692990795198 408.23751721191894 206.31209506641684 376.8530720244456 208.9272602248817 345.46862683697225 207.5219146253017 334.04621672545613 206.1165690257217 322.62380661394 206.06021520293643 318.7887160472097 206.00386138015116 314.95362548047933 206.86697109079284 311.2164959622846 207.7300808014345 307.47936644408986 209.46249006856755 304.05740011761645 211.1948993357006 300.635433791143 213.69592045132237 297.7275155000659 216.19694156694416 294.8195972089889 219.32121506630477 292.59473530101354 222.44548856566536 290.36987339303823 226.01143152618857 288.9573769467909 229.57737448671176 287.54488050054346 233.37773413598686 287.02684387584577 237.17809378526195 286.5088072511481 240.99199304191393 286.91533876096736 244.8058922985659 287.32187027078663 248.41166715860288 288.62934228467134 252.01744201863985 289.9368142985561 255.20552467777986 292.0692364816281 258.39360733691984 294.2016586647 260.97870628122223 297.03509453948755 263.5638052255247 299.8685304142751 265.3956743828862 303.23830055460724 267.22754354024784 306.60807069493933 268.19971458917274 310.3183239019319 269.17188563809765 314.0285771089244 269.17167075735983 314.0270007260078 Z" fill="hsl(105, 69%, 30%)"></path><path d="M 485.79731060030156 117.88305580653939 Q 485.79731060030156 117.88305580653939 469.693638267925 117.94624183788707 453.58996593554843 118.00942786923474 426.15194134493515 126.68100418427481 398.71391675432193 135.35258049931488 382.36592778189777 165.17762001100346 366.0179388094736 195.00265952269203 373.4360670698394 225.25490066751212 380.8541953302052 255.50714181233224 413.14034103842107 268.59909731775514 445.426486746637 281.69105282317804 474.3664630242012 268.2698639977665 503.3064393017654 254.848675172355 512.4868811755124 225.6995585930601 521.6673230492594 196.55044201376518 522.8232874739967 162.29109948655443 523.9792518987341 128.03175695934368 519.5580597448645 121.28584738484857 515.136867590995 114.53993781035345 508.2181517638733 113.40512607302448 501.2994359367516 112.2703143356955 495.1052740453972 108.98568576623168 488.9111121540429 105.70105719676786 484.09003458358063 100.61051327344978 479.26895701311844 95.51996935013172 476.3257318578166 89.15649136550388 473.3825067025148 82.79301338087605 472.6252904130695 75.82285915972403 471.8680741236241 68.85270493857203 473.3761474454259 62.00565146779248 474.8842207672277 55.15859799701293 478.49968802539127 49.15153358244304 482.11515528355477 43.14446916787314 487.4594761017597 38.60633503942938 492.8037969199646 34.06820091098562 499.3174194977812 31.474140909867113 505.83104207559774 28.88008090874861 512.8319884096992 28.50169380183781 519.8329347438006 28.12330669492701 526.5882039049361 30.00020971220196 533.3434730660716 31.877112729476913 539.1457865898525 35.81279362957466 544.9481001136334 39.74847452967241 549.1899542424577 45.33086648343385 553.431808371282 50.9132584371953 555.6690798581212 57.557883533453264 557.9063513449603 64.20250862971122 557.9047972745599 71.21367286687682 557.9032432041595 78.22483710404242 555.6630262881006 84.86846973571677 553.4228093720418 91.51210236739112 549.1784809127957 97.09261330328926 544.9341524535498 102.6731242391874 539.1300947611935 106.60623251120896 533.3260370688373 110.53934078323051 526.5699365158829 112.4132489170551 519.8138359629285 114.28715705087969 512.8130580607076 113.90566637023215 505.81228015848683 113.52417568958461 499.2998082013879 110.92722836943251 492.78733624428907 108.33028104928042 487.445027765346 103.7897781595712 482.10271928640304 99.24927526986198 478.48991539359366 93.24060866172454 474.8771115007843 87.23194205358709 473.3720737153733 80.38422070702737 471.86703592996236 73.53649936046764 472.6273421053737 66.56668150809332 473.3876482807851 59.59686365571899 476.3336941597518 53.23469106652692 479.27974003871856 46.87251847733485 484.1030738400324 41.784112300863825 488.92640764134615 36.69570612439279 495.1220250427729 33.41382383052815 501.3176424441997 30.13194153666351 508.2368606683259 29.00019706790567 515.1560788924521 27.86845259914783 515.1495785310126 27.868451158300207 515.1430781695731 27.868449717452584 543.0626299896402 40.60367242873604 570.9821818097073 53.338895140019495 587.0851726111133 78.29265549466243 603.1881634125193 103.24641584930536 606.7344311300858 136.98086270213875 610.2806988476522 170.71530955497215 603.4349523458623 201.90797642576808 596.5892058440725 233.10064329656402 585.3852489104436 268.0353612964815 574.1812919768148 302.970079296399 555.9396398948073 328.76831452051624 537.6979878127999 354.56654974463356 508.97267829349926 359.65490879869674 480.2473687741987 364.74326785275997 448.5865268178069 362.2200585207156 416.92568486141505 359.6968491886712 378.994807238013 344.05139015981746 341.06392961461097 328.4059311309637 323.12240315960435 304.40433404726434 305.1808767045977 280.402736963565 296.5548239583195 252.262945072553 287.9287712120413 224.12315318154103 292.9031873824812 195.5594835296417 297.877603552921 166.9958138777424 315.52038721522007 134.24544249126558 333.1631708775191 101.49507110478874 358.85457844186027 84.0359476988231 384.5459860062014 66.57682429285744 418.0576371257806 61.18579318251448 451.56928824535976 55.79476207217152 467.6504236369822 54.819729475589504 483.7315590286047 53.844696879007486 487.57803189960396 54.18634039815225 491.42450477060316 54.52798391729701 495.0774358522157 55.780249206481415 498.7303669338281 57.03251449566582 501.97744769995836 59.12261983744504 505.22452846608854 61.21272517922426 507.8770384300455 64.0191935529309 510.52954839400246 66.82566192663755 512.4333235520534 70.18538125853044 514.3370987101043 73.54510059042333 515.3814915606149 77.26280383507711 516.4258844111254 80.9805070797309 516.5501947925532 84.84012114989076 516.6745051739808 88.69973522005061 515.8715081611167 92.47693916461566 515.0685111482525 96.25414310918072 513.3848769652126 99.72940565742168 511.70124278217264 103.20466820566264 509.2348243267806 106.17600693499125 506.76840587138855 109.14734566431984 503.6625515001558 111.44206622817974 500.55669712892313 113.73678679203964 496.9919192438338 115.22151992344232 493.4271413587445 116.706253054845 489.61062501797034 117.29470599443346 485.79410867719616 117.8831589340219 485.79570963874886 117.88310737028064 Z" fill="hsl(105, 69%, 30%)"></path><path d="M 754.5708360466492 112.78429267920882 Q 754.5708360466492 112.78429267920882 738.76657950863 107.63294873776476 722.9623229706108 102.48160479632071 708.9596336770544 127.5813595220464 694.956944383498 152.6811142477721 716.0534347010519 174.4278154396157 737.1499250186058 196.1745166314593 759.3333526739943 216.7099377427932 781.5167803293828 237.24535885412706 792.3828888949258 265.03635843896024 803.2489974604689 292.8273580237934 794.6483898092526 321.00533031137013 786.0477821580363 349.1833025989468 760.8205181089488 367.30649922876995 735.5932540598612 385.4296958585931 707.7514655753625 393.36129163211933 679.909677090864 401.29288740564556 632.2119377895506 379.5676250050811 584.5141984882372 357.8423626045166 584.8249149746676 356.22057433114963 585.1356314610981 354.59878605778266 586.3794833637799 347.3958324383691 587.6233352664616 340.1928788189556 591.1020560826973 333.7641767818476 594.580776898933 327.33547474473966 599.9301436409696 322.35411109023494 605.2795103830063 317.3727474357303 611.9394429408569 314.36027225340786 618.5993754987076 311.34779707108544 625.8725771755138 310.6196173077506 633.1457788523201 309.8914375444158 640.2707435125815 311.5237938135105 647.395708172843 313.1561500826052 653.6264501358223 316.97813425185507 659.8571920988015 320.80011842110497 664.5413510362187 326.4115677390837 669.2255099736357 332.02301705706236 671.8726532082451 338.8364112988988 674.5197964428544 345.6498055407352 674.8527673792146 352.95178053074767 675.1857383155747 360.2537555207601 673.1696748087529 367.27979254996 671.153611301931 374.30582957916 666.9995957332807 380.32030071589656 662.8455801646303 386.3347718526332 656.9885390607426 390.707960381224 651.1314979568548 395.0811489098147 644.1846650674156 397.35518083690647 637.2378321779763 399.6292127639982 629.9285427402956 399.5659963465383 622.6192533026148 399.5027799290785 615.7127918502828 397.1089339426626 608.8063303979508 394.7150879562467 603.0258052681554 390.24124870756646 597.24528013836 385.7674094588862 593.1959138381013 379.6819890982573 589.1465475378426 373.59656873762844 587.2523097876865 366.53671238320374 585.3580720375304 359.476856028779 585.8172900299485 352.18173250448785 586.2765080223667 344.8866089801966 589.0411015123309 338.1200196447578 591.8056950022952 331.3534303093189 596.5862103216248 325.823838852359 601.3667256409542 320.29424739539917 607.6626415737816 316.5806035021323 613.9585575066089 312.86695960886544 621.1106899928068 311.3580827752234 628.2628224790045 309.8492059415814 635.5223413592882 310.7030759703513 642.781860239572 311.55694599912124 649.3886919708491 314.6841624728911 655.9955237021261 317.811378946661 661.2579312580976 322.8845214751222 666.5203388140692 327.9576640035834 669.8873467344843 334.4455732248264 673.2543546548993 340.9334824460693 674.3734363216868 348.1568725519883 675.4925179884741 355.3802626579073 675.4925765992195 355.37348589136695 675.492635209965 355.3667091248266 670.1999835733516 333.9162423197954 664.9073319367382 312.46577551476423 693.9354506145883 315.65625973038914 722.9635692924385 318.846743946014 706.9007947325401 291.40649922048146 690.8380201726419 263.9662544949489 671.7098545063504 241.3645936120439 652.5816888400591 218.7629327291389 637.6526162584956 192.97157403951624 622.7235436769322 167.1802153498936 626.2281664917148 136.78637528714975 629.7327893064975 106.39253522440593 652.9012962767874 80.02602041384299 676.0698032470775 53.65950560328003 707.6674245864756 48.96748654392155 739.2650459258737 44.27546748456308 755.6455668536747 48.46810632357557 772.0260877814758 52.66074516258806 775.4965142157512 54.14190447180642 778.9669406500265 55.62306378102478 781.9820407241446 57.8917338932391 784.9971407982626 60.160404005453415 787.3816767542519 63.08472970714878 789.766212710241 66.00905540884415 791.3815952063023 69.41907475283917 792.9969777023636 72.82909409683418 793.7493206319275 76.52661659863679 794.5016635614913 80.2241391004394 794.3472407181428 83.99426457851749 794.1928178747943 87.76439005659559 793.1406043214444 91.38799864102467 792.0883907680944 95.01160722545374 790.1995412059018 98.27809461505228 788.3106916437093 101.5445820046508 785.694986097976 104.26409979886006 783.0792805522425 106.98361759306933 779.8887439521847 108.99810728991389 776.6982073521268 111.01259698675845 773.1182738348467 112.20497635040732 769.5383403175666 113.39735571405618 765.7770757872909 113.69832359987035 762.0158112570152 113.99929148568454 758.2918205849659 113.39135562599961 754.5678299129165 112.78341976631467 754.5693329797829 112.78385622276174 Z" fill="hsl(105, 69%, 30%)"></path></svg>